HIERARCHY
ROOT hip
{
	OFFSET 0.000000 0.000000 0.000000
	CHANNELS 6 Xposition Yposition Zposition Zrotation Yrotation Xrotation 
	JOINT lhipjoint
	{
		OFFSET 0.000000 0.000000 0.000000
		CHANNELS 3 Zrotation Yrotation Xrotation
		JOINT lfemur
		{
			OFFSET 1.363060 -1.794630 0.839290
			CHANNELS 3 Zrotation Yrotation Xrotation
			JOINT ltibia
			{
				OFFSET 2.448110 -6.726130 0.000000
				CHANNELS 3 Zrotation Yrotation Xrotation
				JOINT lfoot
				{
					OFFSET 2.562200 -7.039590 0.000000
					CHANNELS 3 Zrotation Yrotation Xrotation
					JOINT ltoes
					{
						OFFSET 0.157640 -0.433110 2.322550
						CHANNELS 3 Zrotation Yrotation Xrotation
						End Site
						{
							OFFSET 0.000000 0.000000 0.000000
						}
					}
				}
			}
		}
	}
	JOINT rhipjoint
	{
		OFFSET 0.000000 0.000000 0.000000
		CHANNELS 3 Zrotation Yrotation Xrotation
		JOINT rfemur
		{
			OFFSET -1.305520 -1.794630 0.839290
			CHANNELS 3 Zrotation Yrotation Xrotation
			JOINT rtibia
			{
				OFFSET -2.542530 -6.985550 0.000000
				CHANNELS 3 Zrotation Yrotation Xrotation
				JOINT rfoot
				{
					OFFSET -2.568260 -7.056230 0.000000
					CHANNELS 3 Zrotation Yrotation Xrotation
					JOINT rtoes
					{
						OFFSET -0.164730 -0.452590 2.363150
						CHANNELS 3 Zrotation Yrotation Xrotation
						End Site
						{
							OFFSET 0.000000 0.000000 0.000000
						}
					}
				}
			}
		}
	}
	JOINT lowerback
	{
		OFFSET 0.000000 0.000000 0.000000
		CHANNELS 3 Zrotation Yrotation Xrotation
		JOINT upperback
		{
			OFFSET 0.028270 2.035590 -0.193380
			CHANNELS 3 Zrotation Yrotation Xrotation
			JOINT thorax
			{
				OFFSET 0.056720 2.048850 -0.042750
				CHANNELS 3 Zrotation Yrotation Xrotation
				JOINT lowerneck
				{
					OFFSET 0.000000 0.000000 0.000000
					CHANNELS 3 Zrotation Yrotation Xrotation
					JOINT upperneck
					{
						OFFSET -0.054170 1.746240 0.172020
						CHANNELS 3 Zrotation Yrotation Xrotation
						JOINT head
						{
							OFFSET 0.104070 1.761360 -0.123970
							CHANNELS 3 Zrotation Yrotation Xrotation
							End Site
							{
								OFFSET 0.000000 0.000000 0.000000
							}
						}
					}
				}
				JOINT lclavicle
				{
					OFFSET 0.000000 0.000000 0.000000
					CHANNELS 3 Zrotation Yrotation Xrotation
					JOINT lhumerus
					{
						OFFSET 3.362410 1.200890 -0.311210
						CHANNELS 3 Zrotation Yrotation Xrotation
						JOINT lradius
						{
							OFFSET 4.983000 -0.000000 -0.000000
							CHANNELS 3 Zrotation Yrotation Xrotation
							JOINT lwrist
							{
								OFFSET 3.483560 -0.000000 -0.000000
								CHANNELS 3 Zrotation Yrotation Xrotation
								JOINT lhand
								{
									OFFSET 0.000000 0.000000 0.000000
									CHANNELS 3 Zrotation Yrotation Xrotation
									JOINT lfingers
									{
										OFFSET 0.715260 -0.000000 -0.000000
										CHANNELS 3 Zrotation Yrotation Xrotation
										End Site
										{
											OFFSET 0.000000 0.000000 0.000000
										}
									}
								}
								JOINT lthumb
								{
									OFFSET 0.000000 0.000000 0.000000
									CHANNELS 3 Zrotation Yrotation Xrotation
									End Site
									{
										OFFSET 0.000000 0.000000 0.000000
									}
								}
							}
						}
					}
				}
				JOINT rclavicle
				{
					OFFSET 0.000000 0.000000 0.000000
					CHANNELS 3 Zrotation Yrotation Xrotation
					JOINT rhumerus
					{
						OFFSET -3.136600 1.374050 -0.404650
						CHANNELS 3 Zrotation Yrotation Xrotation
						JOINT rradius
						{
							OFFSET -5.241900 -0.000000 -0.000000
							CHANNELS 3 Zrotation Yrotation Xrotation
							JOINT rwrist
							{
								OFFSET -3.444170 -0.000000 -0.000000
								CHANNELS 3 Zrotation Yrotation Xrotation
								JOINT rhand
								{
									OFFSET 0.000000 0.000000 0.000000
									CHANNELS 3 Zrotation Yrotation Xrotation
									JOINT rfingers
									{
										OFFSET -0.622530 -0.000000 -0.000000
										CHANNELS 3 Zrotation Yrotation Xrotation
										End Site
										{
											OFFSET 0.000000 0.000000 0.000000
										}
									}
								}
								JOINT rthumb
								{
									OFFSET 0.000000 0.000000 0.000000
									CHANNELS 3 Zrotation Yrotation Xrotation
									End Site
									{
										OFFSET 0.000000 0.000000 0.000000
									}
								}
							}
						}
					}
				}
			}
		}
	}
}
MOTION
Frames: 7
Frame Time: 0.008333
-0.779911 20.052225 5.009490 159.419692 23.921203 155.107696 9.686507 3.449411 -1.301003 -8.414547 -26.455313 -88.421311 32.002654 20.294269 129.192136 2.642164 -6.758763 12.669666 0.924500 -6.125500 -17.149000 -9.384657 -6.409344 -0.202109 6.002022 3.747225 5.088245 -0.726047 -3.235219 18.093128 -3.251911 12.961268 20.238239 -0.612700 5.009900 -13.936700 5.922325 1.466667 46.759563 0.611202 12.471030 3.629263 -2.588064 11.009371 8.407502 -0.964519 0.675207 -6.014423 -9.086132 1.618160 8.468944 -6.616600 -0.236600 3.450900 3.298180 -1.455987 6.123900 -69.057800 18.217194 62.256268 10.808539 -30.226715 -1.805220 0.053959 -0.922011 25.076418 29.006539 -16.314190 -8.255600 -7.125000 0.000000 0.000000 0.618600 12.508700 -0.470000 3.024001 4.589178 -6.102119 37.927203 70.449253 -7.319632 -135.416789 46.283511 -99.899212 0.150009 -1.110119 -13.111213 -14.493634 11.335411 -3.177300 7.125000 0.000000 0.000000 8.913800 -17.193000 5.953600 
-0.769238 20.047094 5.011337 159.356350 23.766180 155.106564 9.672860 3.425073 -1.320946 -8.276987 -26.492978 -88.782595 32.023093 20.304686 129.213336 2.603423 -6.611034 12.663958 0.853300 -5.891300 -16.469300 -9.408399 -6.442272 -0.171241 5.997845 3.946933 4.984988 -0.756337 -3.353050 18.381697 -3.246198 12.871054 19.945838 -0.633100 5.090900 -14.168000 5.924166 1.570107 47.008661 0.619808 12.515065 3.632097 -2.949255 11.095081 7.327816 -0.716895 0.643824 -5.057680 -9.028271 1.620852 8.646612 -6.678000 -0.192600 3.328400 3.328893 -1.876326 6.597072 -68.571112 18.798858 62.629807 10.828141 -30.372992 -1.814550 0.051355 -0.941512 25.026674 29.642684 -16.440527 -8.523700 -7.125000 0.000000 0.000000 1.028500 12.296700 -0.786000 2.657075 5.232954 -8.076406 41.433108 67.875627 -1.769795 -133.198098 44.531469 -99.645334 0.416981 -0.451165 -13.098349 -14.502111 11.791424 -3.229300 7.125000 0.000000 0.000000 8.629300 -17.334500 5.732000 
-0.757745 20.044220 5.013800 159.376369 23.780866 155.272494 9.737944 3.482251 -1.391020 -8.106293 -26.481058 -89.096521 32.031294 20.323614 129.186954 2.569842 -6.478778 12.660311 0.784700 -5.655100 -15.786800 -9.361136 -6.349926 -0.264518 6.088077 4.130119 4.807190 -0.790233 -3.509999 18.755766 -3.254644 12.819680 19.626869 -0.651000 5.161100 -14.368600 5.697908 1.354853 47.422054 0.633340 12.171763 3.723622 -3.684463 10.759585 6.880752 -1.033025 0.607388 -5.841284 -8.773744 1.673482 8.927629 -6.736800 -0.149900 3.216400 3.122248 -0.417174 6.090506 -67.410152 19.097510 63.653847 10.660793 -30.810434 -1.790047 -0.010026 -0.997814 24.716238 29.832895 -16.525511 -8.593900 -7.125000 0.000000 0.000000 1.182800 12.278700 -0.904400 2.754063 3.583588 -6.727716 46.841137 71.195639 3.653856 -130.367284 43.645945 -99.095485 1.179567 1.011106 -12.922300 -13.712192 13.019650 -3.263200 7.125000 0.000000 0.000000 8.431000 -17.436800 5.578200 
-0.745123 20.035498 5.014929 159.605628 24.243062 155.330409 10.089083 3.852224 -1.199538 -7.906558 -26.402593 -89.406110 32.036063 20.329008 129.180913 2.545514 -6.385386 12.678388 0.733300 -5.471000 -15.257000 -8.997632 -6.072342 -0.263112 6.219348 4.376479 4.620769 -0.861979 -3.615238 19.199545 -3.241009 12.806523 19.349778 -0.648600 5.151600 -14.341600 4.641586 0.312128 47.157355 0.212018 10.592448 3.653062 -4.285335 9.656092 17.177797 -0.818249 1.167555 -14.851497 -8.970384 2.007296 6.658720 -6.816500 -0.109900 3.082300 2.022904 5.646266 -0.174984 -67.240073 15.549922 63.814182 11.350547 -30.640005 -1.875388 0.045209 -0.917708 24.519054 29.872021 -16.401093 -8.595800 -7.125000 0.000000 0.000000 1.199500 12.288000 -0.916900 5.243263 -5.311996 19.214475 -90.879645 66.978644 -146.502036 -142.921772 53.239554 -99.685664 0.616565 -0.529865 -14.012611 -14.870268 11.415680 -3.283800 7.125000 0.000000 0.000000 8.258800 -17.556000 5.440000 
-0.730653 20.021952 5.014108 159.710359 24.177453 155.452056 10.090644 3.827952 -1.199467 -7.764737 -26.252826 -89.636710 32.046583 20.347159 129.175707 2.523457 -6.306012 12.680147 0.708000 -5.377900 -14.989500 -9.012679 -6.105621 -0.204669 6.382498 4.518359 4.350891 -0.906634 -3.765441 19.610033 -3.257532 12.844502 19.058245 -0.668000 5.226700 -14.556400 4.663964 0.476613 47.053151 0.174563 10.683424 3.478674 -4.237849 9.794551 17.038111 -0.573537 1.278303 -14.252955 -9.198102 2.091604 6.633786 -6.856900 -0.072400 2.951300 2.139159 5.183977 0.022880 -67.072142 15.708155 64.246955 11.409909 -30.452819 -1.887396 0.056567 -0.912528 24.406461 29.668185 -16.419359 -8.539500 -7.125000 0.000000 0.000000 1.055900 12.287000 -0.807200 5.164030 -4.549757 18.765725 -84.767742 67.183889 -137.569775 -140.813678 51.320037 -100.061377 0.212094 -1.465906 -15.001980 -15.663530 10.445204 -3.294000 7.125000 0.000000 0.000000 8.148900 -17.641000 5.350700 
-0.715363 20.011587 5.013903 159.760137 24.070396 155.580377 10.074736 3.797789 -1.211773 -7.728488 -26.126874 -89.793014 32.045479 20.366644 129.136836 2.480021 -6.142758 12.734991 0.661500 -5.201900 -14.485400 -9.040827 -6.135049 -0.162701 6.498827 4.658534 4.078378 -0.950682 -3.913570 19.999059 -3.267898 12.835180 18.795632 -0.678900 5.268400 -14.675700 4.624903 0.667003 46.905287 0.179954 10.809928 3.438671 -4.106622 9.930909 16.060663 -0.629329 1.294905 -13.043972 -9.319040 2.106649 6.655364 -6.846500 -0.044600 2.792600 2.227720 4.492046 0.641792 -66.860563 16.168623 64.607630 11.374655 -30.333853 -1.870880 0.049559 -0.924776 24.401977 29.420344 -16.473659 -8.475400 -7.125000 0.000000 0.000000 0.888000 12.281900 -0.678800 5.070702 -3.456036 16.440798 -77.244675 69.944897 -128.218147 -139.034555 50.062486 -100.116237 0.082350 -1.637860 -15.708022 -15.923877 10.195821 -3.282800 7.125000 0.000000 0.000000 8.098600 -17.739300 5.299400 
-0.699149 20.007482 5.013184 159.815604 23.962981 155.704025 10.055814 3.766602 -1.219588 -7.769115 -26.065049 -89.810598 32.032906 20.387133 129.044192 2.394998 -5.816771 12.702413 0.603600 -4.973100 -13.831800 -9.062190 -6.162814 -0.123674 6.612754 4.787188 3.849458 -0.990299 -4.045402 20.345273 -3.275766 12.825580 18.538063 -0.686700 5.298100 -14.760900 4.593078 0.840853 46.737549 0.179945 10.894966 3.415781 -4.092656 10.066987 15.073468 -0.645163 1.290714 -11.883540 -9.384506 2.096289 6.639477 -6.833100 -0.015800 2.621400 2.287921 3.866117 1.227014 -66.609627 16.586912 64.849400 11.271622 -30.166810 -1.837153 0.030404 -0.940757 24.464444 29.047626 -16.552711 -8.379300 -7.125000 0.000000 0.000000 0.641100 12.278100 -0.490100 4.945975 -2.469811 14.186576 -68.504227 72.371996 -118.744921 -138.053600 49.486200 -100.080505 0.027420 -1.657506 -16.393677 -15.863768 10.118997 -3.232900 7.125000 0.000000 0.000000 8.195000 -17.823100 5.348500 
